<svg width="22" height="23" viewBox="0 0 22 23" fill="none" xmlns="http://www.w3.org/2000/svg">
<path d="M19.2495 15.6036V18.0876C19.2534 19.0371 18.3996 19.83 17.4409 19.7435C9.16673 19.75 2.75006 13.2737 2.75654 5.05509C2.6702 4.10153 3.45917 3.25097 4.40749 3.25008H6.89637C7.29899 3.24613 7.68932 3.38842 7.9946 3.65044C8.86251 4.39537 9.42076 6.92379 9.20597 7.92892C9.03828 8.71367 8.24722 9.26269 7.70941 9.79944C8.89042 11.8723 10.6102 13.5887 12.6872 14.7673C13.225 14.2306 13.7751 13.4411 14.5614 13.2737C15.5701 13.059 18.1148 13.6181 18.8567 14.492C19.1198 14.8019 19.2596 15.1975 19.2495 15.6036Z" stroke="#D0B170" stroke-width="2" stroke-linecap="round" stroke-linejoin="round"/>
</svg>