<svg width="30" height="30" viewBox="0 0 30 30" fill="none" xmlns="http://www.w3.org/2000/svg">
<path d="M26.2492 20.5958V23.983C26.2545 25.2779 25.0903 26.3591 23.783 26.2412C12.5 26.25 3.75 17.4187 3.75883 6.21148C3.64109 4.91118 4.71697 3.75132 6.01014 3.75011H9.40406C9.95309 3.74472 10.4854 3.93875 10.9016 4.29605C12.0852 5.31187 12.8464 8.75972 12.5535 10.1303C12.3248 11.2005 11.2461 11.9491 10.5127 12.6811C12.1232 15.5077 14.4683 17.8482 17.3006 19.4555C18.034 18.7235 18.7841 17.647 19.8564 17.4187C21.2318 17.126 24.7019 17.8883 25.7136 19.0801C26.0724 19.5026 26.263 20.0421 26.2492 20.5958Z" fill="white"/>
<path d="M18.1249 8.125C19.0464 8.30478 19.9611 8.71115 20.6249 9.375C21.2888 10.0388 21.6952 10.9536 21.8749 11.875M18.7499 3.75C20.6643 3.96268 22.3871 4.88884 23.7499 6.25C25.1128 7.61116 26.0349 9.33586 26.2499 11.25M26.2492 20.5958V23.983C26.2545 25.2779 25.0903 26.3591 23.783 26.2412C12.5 26.25 3.75 17.4187 3.75883 6.21148C3.64109 4.91118 4.71697 3.75132 6.01014 3.75011H9.40406C9.95309 3.74472 10.4854 3.93875 10.9016 4.29605C12.0852 5.31187 12.8464 8.75972 12.5535 10.1303C12.3248 11.2005 11.2461 11.9491 10.5127 12.6811C12.1232 15.5077 14.4683 17.8482 17.3006 19.4555C18.034 18.7235 18.7841 17.647 19.8564 17.4187C21.2318 17.126 24.7019 17.8883 25.7136 19.0801C26.0724 19.5026 26.263 20.0421 26.2492 20.5958Z" stroke="white" stroke-width="1.5" stroke-linecap="round" stroke-linejoin="round"/>
</svg>
