<?xml version="1.0" encoding="UTF-8"?>
<svg xmlns="http://www.w3.org/2000/svg" xmlns:xlink="http://www.w3.org/1999/xlink" viewBox="0 0 28 28" width="28px" height="28px">
<g id="surface43758444">
<path style=" stroke:none;fill-rule:nonzero;fill:rgb(100%,100%,100%);fill-opacity:1;" d="M 5.039062 2.238281 C 3.5 2.238281 2.238281 3.5 2.238281 5.039062 L 2.238281 22.960938 C 2.238281 24.5 3.5 25.761719 5.039062 25.761719 L 22.960938 25.761719 C 24.5 25.761719 25.761719 24.5 25.761719 22.960938 L 25.761719 5.039062 C 25.761719 3.5 24.5 2.238281 22.960938 2.238281 Z M 5.039062 3.359375 L 8.722656 3.359375 C 6.785156 5.375 5.601562 8.019531 5.601562 10.921875 C 5.601562 13.921875 6.871094 16.660156 8.929688 18.699219 C 8.855469 18.625 8.953125 18.75 8.964844 18.96875 C 8.972656 19.195312 8.9375 19.507812 8.847656 19.816406 C 8.664062 20.433594 8.28125 21.003906 7.664062 21.207031 C 7.421875 21.289062 7.265625 21.519531 7.28125 21.773438 C 7.296875 22.027344 7.480469 22.238281 7.730469 22.289062 C 9.277344 22.597656 10.371094 22.132812 11.175781 21.761719 C 11.980469 21.390625 12.414062 21.144531 13.230469 21.472656 C 13.230469 21.472656 13.234375 21.472656 13.238281 21.476562 C 14.761719 22.070312 16.441406 22.398438 18.199219 22.398438 C 20.550781 22.398438 22.753906 21.8125 24.640625 20.789062 L 24.640625 22.960938 C 24.640625 23.894531 23.894531 24.640625 22.960938 24.640625 L 5.039062 24.640625 C 4.105469 24.640625 3.359375 23.894531 3.359375 22.960938 L 3.359375 5.039062 C 3.359375 4.105469 4.105469 3.359375 5.039062 3.359375 Z M 10.359375 3.359375 L 22.960938 3.359375 C 23.894531 3.359375 24.640625 4.105469 24.640625 5.039062 L 24.640625 19.492188 C 22.808594 20.613281 20.59375 21.28125 18.199219 21.28125 C 16.582031 21.28125 15.042969 20.976562 13.648438 20.433594 C 12.464844 19.957031 11.503906 20.378906 10.707031 20.742188 C 10.277344 20.941406 9.851562 21.105469 9.371094 21.195312 C 9.609375 20.859375 9.8125 20.496094 9.921875 20.136719 C 10.046875 19.710938 10.097656 19.292969 10.082031 18.921875 C 10.066406 18.550781 10.035156 18.210938 9.71875 17.902344 C 7.847656 16.050781 6.71875 13.605469 6.71875 10.921875 C 6.71875 7.9375 8.113281 5.257812 10.359375 3.359375 Z M 18.472656 8.390625 C 18.164062 8.398438 17.914062 8.652344 17.921875 8.960938 L 17.921875 14 C 17.917969 14.203125 18.023438 14.390625 18.199219 14.492188 C 18.371094 14.59375 18.585938 14.59375 18.761719 14.492188 C 18.9375 14.390625 19.042969 14.203125 19.039062 14 L 19.039062 8.960938 C 19.042969 8.808594 18.984375 8.664062 18.875 8.554688 C 18.769531 8.449219 18.621094 8.390625 18.472656 8.390625 Z M 10.078125 8.960938 C 9.878906 8.957031 9.691406 9.0625 9.589844 9.238281 C 9.488281 9.414062 9.488281 9.628906 9.589844 9.800781 C 9.691406 9.976562 9.878906 10.082031 10.078125 10.078125 L 11.871094 10.078125 L 9.605469 13.703125 C 9.496094 13.875 9.492188 14.09375 9.589844 14.269531 C 9.6875 14.449219 9.875 14.558594 10.078125 14.558594 L 12.878906 14.558594 C 13.082031 14.5625 13.269531 14.457031 13.371094 14.28125 C 13.472656 14.109375 13.472656 13.890625 13.371094 13.71875 C 13.269531 13.542969 13.082031 13.4375 12.878906 13.441406 L 11.089844 13.441406 L 13.355469 9.816406 C 13.460938 9.644531 13.46875 9.425781 13.371094 9.25 C 13.269531 9.070312 13.082031 8.960938 12.878906 8.960938 Z M 16.792969 10.632812 C 16.605469 10.636719 16.433594 10.730469 16.332031 10.886719 C 16.050781 10.734375 15.738281 10.640625 15.398438 10.640625 C 14.324219 10.640625 13.441406 11.523438 13.441406 12.601562 C 13.441406 13.675781 14.324219 14.558594 15.398438 14.558594 C 15.738281 14.558594 16.050781 14.464844 16.328125 14.3125 C 16.464844 14.519531 16.722656 14.617188 16.960938 14.542969 C 17.199219 14.472656 17.363281 14.25 17.359375 14 L 17.359375 11.199219 C 17.363281 11.046875 17.304688 10.902344 17.195312 10.796875 C 17.089844 10.6875 16.941406 10.628906 16.792969 10.632812 Z M 21.558594 10.640625 C 20.484375 10.640625 19.601562 11.523438 19.601562 12.601562 C 19.601562 13.675781 20.484375 14.558594 21.558594 14.558594 C 22.636719 14.558594 23.519531 13.675781 23.519531 12.601562 C 23.519531 11.523438 22.636719 10.640625 21.558594 10.640625 Z M 15.398438 11.761719 C 15.871094 11.761719 16.238281 12.128906 16.238281 12.601562 C 16.238281 13.070312 15.871094 13.441406 15.398438 13.441406 C 14.929688 13.441406 14.558594 13.070312 14.558594 12.601562 C 14.558594 12.128906 14.929688 11.761719 15.398438 11.761719 Z M 21.558594 11.761719 C 22.03125 11.761719 22.398438 12.128906 22.398438 12.601562 C 22.398438 13.070312 22.03125 13.441406 21.558594 13.441406 C 21.089844 13.441406 20.71875 13.070312 20.71875 12.601562 C 20.71875 12.128906 21.089844 11.761719 21.558594 11.761719 Z M 21.558594 11.761719 "/>
</g>
</svg>
